:SAMPLES-PER-SECOND 30
:FULLY-SPECIFIED
:DEGREES
150
root  -78.9298 41.8021 -8.04548 173.307 -86.3024 -173.201
RightUpLeg  1.75266 -6.57439 -3.22989
RightLeg  0.907537 -4.06468 3.39872
RightFoot  -0.948339 0.127156 -1.51374
RightToes  0.00048216 0.542163 -0.142577
Spine  4.01019 -0.918771 1.7909
Spine1  -1.94822 -0.435677 -2.90818
HEad  -8.74528 1.96378 2.38572
LeftShoulder1  0.6411 -0.933183 -6.72136
LeftArm  -17.5964 11.473 -4.00174
LeftForeArm  9.43967 -2.0178 -1.43313
LeftHand  -0.25398 0.0180481 5.50724
RightShoulder  0.849612 0.688633 13.2836
RightArm  -5.94902 -2.13637 -4.90923
RightForeArm  -29.7504 5.27253 9.75578
RightHand  -2.72186 7.33936 -24.8594
LeftUpLeg  0.145618 6.05306 5.66892
LeftLeg  1.8518 10.8643 -3.1354
LeftFoot  -0.825957 0.087508 -0.931868
LeftToes  1.06246e-005 4.65856e-005 -8.18504e-006
151
root  -78.9982 41.7985 -8.03914 173.424 -86.34 -173.334
RightUpLeg  1.85032 -6.62416 -3.28657
RightLeg  0.983737 -4.04038 3.40833
RightFoot  -1.05597 0.124993 -1.51271
RightToes  0.00048216 0.542163 -0.142577
Spine  4.38207 -0.897735 1.71589
Spine1  -2.56209 -0.387968 -3.11841
HEad  -8.31176 1.50505 2.65182
LeftShoulder1  0.690916 -1.49748 -6.00459
LeftArm  -17.6898 11.9105 -4.37142
LeftForeArm  10.0732 -1.75535 -1.28148
LeftHand  -0.25398 0.0180481 5.50724
RightShoulder  0.95883 0.998773 14.4442
RightArm  -5.27451 -2.24474 -5.36186
RightForeArm  -29.9301 4.83693 9.93165
RightHand  -2.5813 6.71569 -24.7831
LeftUpLeg  0.265057 6.02456 5.64578
LeftLeg  1.85584 10.842 -3.12258
LeftFoot  -0.8918 0.0904633 -0.977799
LeftToes  1.06246e-005 4.65856e-005 -8.18504e-006
152
root  -79.071 41.7927 -8.02966 173.963 -86.343 -173.981
RightUpLeg  2.0079 -6.66996 -3.37675
RightLeg  1.14802 -3.98246 3.37692
RightFoot  -1.23255 0.121291 -1.48778
RightToes  0.00048216 0.542163 -0.142577
Spine  4.52415 -0.868244 1.38207
Spine1  -2.55291 -0.414758 -2.78245
HEad  -8.06035 1.69851 2.49681
LeftShoulder1  0.709839 -1.62811 -6.03505
LeftArm  -17.9792 11.9659 -4.43688
LeftForeArm  10.5797 -1.54502 -1.10035
LeftHand  -0.25398 0.0180481 5.50724
RightShoulder  0.965469 0.91188 15.055
RightArm  -4.9723 -2.0579 -5.39462
RightForeArm  -29.333 4.61071 10.0205
RightHand  -2.55288 6.6842 -24.5849
LeftUpLeg  0.476394 5.97917 5.58457
LeftLeg  1.91238 10.8784 -3.08985
LeftFoot  -0.993483 0.0855266 -0.901073
LeftToes  1.06246e-005 4.65856e-005 -8.18504e-006
153
root  -79.143 41.787 -8.01797 173.579 -86.4126 -173.757
RightUpLeg  2.27331 -6.65447 -3.40245
RightLeg  1.22173 -4.05645 3.31631
RightFoot  -1.38294 0.115453 -1.42806
RightToes  0.00048216 0.542163 -0.142577
Spine  4.67189 -0.881375 1.14319
Spine1  -2.4852 -0.480034 -2.47432
HEad  -7.78874 2.29217 2.24603
LeftShoulder1  0.733363 -1.78909 -6.06072
LeftArm  -18.1019 12.1961 -4.43699
LeftForeArm  10.7805 -1.6077 -1.01885
LeftHand  -0.25398 0.0180481 5.50724
RightShoulder  0.998311 0.985213 15.4682
RightArm  -4.53402 -2.13868 -5.51088
RightForeArm  -27.4645 4.21413 10.0336
RightHand  -2.52882 7.00312 -23.7688
LeftUpLeg  0.701599 5.99356 5.59087
LeftLeg  2.03598 10.7847 -3.06733
LeftFoot  -1.15118 0.0801121 -0.81692
LeftToes  1.06246e-005 4.65856e-005 -8.18504e-006
154
root  -79.2045 41.7832 -8.00243 171.828 -86.5733 -172.11
RightUpLeg  2.55228 -6.59364 -3.34028
RightLeg  1.13469 -4.27217 3.27532
RightFoot  -1.44491 0.110529 -1.38059
RightToes  0.00048216 0.542163 -0.142577
Spine  4.70203 -0.911097 0.884729
Spine1  -2.18333 -0.615841 -1.85566
HEad  -7.80082 2.65737 1.93426
LeftShoulder1  0.750871 -1.74871 -6.57063
LeftArm  -17.864 11.9141 -4.10575
LeftForeArm  10.3627 -1.52331 -1.14205
LeftHand  -0.25398 0.0180481 5.50724
RightShoulder  0.993785 1.01261 15.2069
RightArm  -4.91424 -2.14873 -5.17783
RightForeArm  -26.004 3.60447 9.78805
RightHand  -2.48825 6.99088 -23.4244
LeftUpLeg  0.805569 6.07342 5.68523
LeftLeg  2.21928 10.5151 -3.06105
LeftFoot  -1.32591 0.0787827 -0.796259
LeftToes  1.06246e-005 4.65856e-005 -8.18504e-006
155
root  -79.2567 41.7813 -7.98241 170.383 -86.6879 -170.703
RightUpLeg  2.74787 -6.56054 -3.30435
RightLeg  1.02805 -4.41529 3.25912
RightFoot  -1.47702 0.104911 -1.33218
RightToes  0.00048216 0.542163 -0.142577
Spine  4.515 -0.946914 0.567886
Spine1  -1.50421 -0.782521 -1.09744
HEad  -8.20086 2.628 1.76382
LeftShoulder1  0.702072 -1.17509 -7.32077
LeftArm  -17.5691 10.9908 -3.74282
LeftForeArm  9.56494 -1.3351 -1.38103
LeftHand  -0.25398 0.0180481 5.50724
RightShoulder  0.941202 0.858545 14.7424
RightArm  -7.1409 -1.74241 -4.46742
RightForeArm  -23.7723 2.70582 8.92715
RightHand  -2.38392 6.58054 -23.2158
LeftUpLeg  0.845336 6.12078 5.74079
LeftLeg  2.36966 10.3265 -3.04654
LeftFoot  -1.47635 0.0791773 -0.802392
LeftToes  1.06246e-005 4.65856e-005 -8.18504e-006
